<svg width="250" height="250" viewBox="0 0 351 309" fill="none" xmlns="http://www.w3.org/2000/svg">
<path d="M240.714 239.947C245.904 239.743 252.376 239.05 259.928 237.018C277.596 231.975 273.624 229.938 259.667 232.947C251.71 234.747 238.569 233.814 229.136 232.316C227.387 230.821 225.638 229.326 223.888 227.83C233.533 224.305 252.622 216.402 268.009 206.128C289.403 191.709 287.258 185.576 263.976 200.871C247.037 211.969 227.814 219.304 218.102 222.546C217.228 221.799 216.69 221 215.815 220.252C212.654 217.211 209.425 213.886 206.196 210.561C213.287 203.607 231.048 185.63 246.99 167.343C266.985 144.034 253.22 152.299 241.869 166.362C233.221 177.077 209.192 195.128 198.798 202.879C189.516 193.136 179.83 183.161 169.741 172.954C175.012 165.691 186.906 149.489 195.769 132.282C207.744 109.021 199.442 115.278 187.272 134.752C178.415 149.022 168.011 161.179 163.283 166.304C149.024 151.741 134.697 136.894 121.312 123.079C124.965 116.356 136.263 94.666 137.573 79.4908C139.084 65.166 135.777 67.432 131.907 82.1166C128.646 94.9463 118.165 112.694 115.392 117.228C77.0536 77.5594 73.2844 74.9041 73.2844 74.9041C73.2844 74.9041 121.568 130.087 136.967 148C133.119 150.936 125.968 154.669 116.326 156.726C101.628 159.554 98.7914 162.336 115.105 160.436C127.374 159.153 137.964 155.189 142.482 153.619C153.644 166.893 165.143 180.115 175.498 192.925C171.854 195.242 163.554 200.031 148.045 203.864C126.265 209.24 123.964 214.289 149.248 208.966C166.239 205.494 176.625 202.149 181.751 200.193C187.264 207.281 192.643 213.801 197.685 220.374C190.054 227.997 169.123 247.338 151.716 256.452C129.588 267.754 127.696 270.097 153.126 259.467C172.822 251.179 195.363 235.703 204.273 229.059C206.29 231.688 207.903 234.085 209.853 236.43C207.281 241.814 201.67 250.598 192.623 258.143C178.582 269.68 180.866 273.443 197.944 259.975C206.45 253.099 211.381 247.355 213.883 243.157C221.401 258.748 212.808 275.62 207.133 282.652C171.321 329.221 79.5703 305.917 40.0981 259.962C9.70413 224.368 109.477 212.093 92.4568 196.189C75.0325 180.052 6.75784 248.895 0.991122 165.207C-1.69748 127.151 57.2358 147.529 61.3795 131.041C67.9668 105.666 2.31306 144.158 0.298638 105.999C-0.407787 88.1945 0.832907 74.2045 4.45335 49.5745C8.07378 24.9445 14.7137 7.19499 14.7137 7.19499C14.7137 7.19499 42.3236 19.1355 67.9452 13.7611C93.904 8.33532 127.706 -9.73799 150.518 8.51309C190.153 40.3493 150.365 86.3496 174.092 84.7876C192.696 83.7131 199.987 43.5482 193.285 24.0155C185.712 2.26655 248.987 8.47613 256.671 42.5408C268.173 88.356 213.175 123.168 219.348 137.496C227.668 156.488 258.686 114.761 267.894 93.0966C277.103 71.4319 336.705 94.6449 348.602 145.098C363.642 208.873 303.123 275.065 240.714 239.947Z" fill="#FF8D06" fill-opacity="0.35"/>
</svg>
