<?xml version="1.0" standalone="no"?>
<!DOCTYPE svg PUBLIC "-//W3C//DTD SVG 20010904//EN"
 "http://www.w3.org/TR/2001/REC-SVG-20010904/DTD/svg10.dtd">
<svg version="1.0" xmlns="http://www.w3.org/2000/svg"
 width="607.000000pt" height="541.000000pt" viewBox="0 0 607.000000 541.000000"
 preserveAspectRatio="xMidYMid meet">

<g transform="translate(0.000000,541.000000) scale(0.100000,-0.100000)"
fill="#000000" stroke="none">
<path d="M2745 5085 c-446 -63 -848 -237 -1195 -516 -125 -100 -316 -298 -412
-427 -253 -336 -412 -733 -469 -1167 -15 -116 -15 -454 0 -570 45 -344 152
-660 319 -943 465 -784 1321 -1239 2227 -1182 345 22 617 94 923 245 237 116
421 246 611 430 372 360 609 809 703 1332 20 113 23 160 23 398 0 300 -9 383
-70 620 -209 818 -868 1487 -1685 1711 -233 64 -327 76 -615 80 -186 2 -288
-1 -360 -11z m-504 -891 c15 -7 39 -28 54 -46 29 -34 95 -166 95 -190 0 -8 9
-32 21 -53 12 -24 20 -57 20 -81 -1 -34 9 -56 64 -139 63 -95 119 -213 131
-275 5 -21 2 -31 -9 -36 -20 -7 -64 22 -81 54 -13 24 -13 24 -25 -23 -23 -91
-100 -134 -149 -82 -26 28 -52 88 -52 122 0 25 -1 25 -38 -15 -31 -32 -46 -40
-75 -40 -36 0 -36 0 -30 38 9 67 23 100 72 166 35 47 54 85 66 133 9 38 24 89
32 115 18 57 12 88 -32 183 -107 232 -244 162 -444 -225 -67 -131 -161 -341
-161 -360 0 -6 25 -10 56 -10 188 0 329 -91 342 -220 6 -66 -23 -124 -94 -190
l-56 -50 29 -10 c93 -34 159 -98 170 -162 7 -49 23 -59 23 -16 1 40 42 251 64
330 10 31 24 62 32 68 29 25 185 -13 203 -49 5 -10 -3 -70 -20 -155 -49 -240
-50 -330 -6 -324 38 5 63 67 70 176 11 175 70 328 155 402 70 62 163 67 249
14 66 -42 88 -89 87 -187 -1 -68 -6 -87 -35 -145 -54 -105 -130 -139 -205 -93
l-32 19 -6 -30 c-13 -65 -7 -134 15 -162 54 -69 184 12 227 143 16 48 23 57
50 66 l32 9 0 71 c0 90 32 287 72 439 40 156 52 184 83 192 32 8 119 -13 147
-35 l21 -18 -36 -134 c-21 -74 -37 -141 -37 -148 0 -8 16 2 35 22 21 22 49 39
70 43 86 16 193 -52 235 -148 20 -46 22 -64 17 -133 -13 -184 -93 -342 -201
-397 -84 -43 -237 -30 -312 27 l-30 23 -41 -53 c-105 -135 -357 -161 -474 -49
l-26 25 -37 -25 c-59 -40 -129 -59 -202 -54 -101 6 -150 54 -170 166 -7 37
-13 54 -13 39 -3 -73 -93 -173 -203 -225 -70 -34 -211 -72 -268 -72 -39 0 -50
-6 -66 -35 -8 -14 -23 -21 -53 -23 -45 -3 -140 22 -156 43 -5 6 -28 16 -49 21
-23 6 -47 20 -59 36 -18 24 -19 32 -9 65 20 63 22 64 75 48 37 -11 49 -11 51
-2 2 7 14 85 25 175 28 215 68 427 87 463 8 17 27 35 42 40 33 13 138 7 153
-8 8 -8 7 -39 -5 -112 -21 -134 -21 -141 6 -141 36 0 117 59 138 101 41 80 15
170 -58 205 -110 53 -314 1 -354 -89 -14 -31 -91 -77 -129 -77 -21 0 -89 59
-89 78 0 19 113 113 172 143 32 16 97 40 144 52 l85 23 75 174 c124 288 216
443 322 542 82 75 139 89 213 52z m1621 -1354 c32 -37 27 -65 -16 -91 -70 -43
-130 -6 -106 66 21 62 78 74 122 25z m263 -94 c41 -17 41 -23 19 -129 -16 -80
-16 -162 1 -162 6 0 17 15 25 32 16 34 37 42 58 21 19 -19 14 -44 -13 -77 -55
-65 -153 -62 -181 5 -9 21 -12 51 -9 76 8 64 -10 18 -26 -64 -11 -61 -14 -68
-40 -73 -31 -7 -69 1 -69 15 0 5 -21 0 -46 -12 -84 -36 -151 -8 -161 68 -6 51
32 235 52 250 17 13 80 3 97 -14 7 -7 5 -40 -6 -99 -20 -108 -20 -143 -3 -143
21 0 38 47 48 138 5 46 16 99 24 118 13 33 17 35 52 32 l38 -3 -3 -60 -2 -60
30 69 c39 91 51 99 115 72z m703 -112 c13 -9 21 -22 18 -29 -3 -8 5 -16 20
-19 13 -4 31 -17 40 -31 36 -55 -21 -143 -110 -171 -102 -32 -172 7 -170 94 1
69 35 129 87 153 52 23 86 24 115 3z m-1518 -114 c51 -12 120 -40 120 -50 0
-3 -11 -78 -25 -166 -37 -235 -54 -408 -62 -606 -5 -134 -9 -178 -20 -182 -17
-7 -117 12 -165 31 -49 19 -52 34 -44 186 15 261 83 754 108 784 12 15 28 16
88 3z m-461 -101 c122 -41 198 -150 171 -248 -13 -47 -58 -111 -104 -146 -20
-15 -36 -30 -36 -34 0 -3 21 -15 47 -25 131 -54 184 -173 129 -291 -54 -116
-213 -205 -423 -235 -66 -10 -84 -16 -88 -31 -11 -33 -40 -41 -101 -29 -66 14
-124 37 -124 49 0 5 -16 11 -36 14 -20 3 -45 14 -55 23 -22 20 -25 70 -7 110
12 27 27 28 94 9 20 -6 22 0 38 122 9 70 28 196 42 278 40 244 54 278 122 291
33 7 109 -2 129 -14 9 -6 7 -35 -8 -122 -10 -63 -19 -121 -19 -127 0 -35 102
16 152 75 60 72 39 181 -44 223 -50 26 -147 30 -218 10 -56 -15 -140 -75 -140
-100 0 -21 -85 -71 -123 -71 -31 0 -87 45 -87 69 0 25 97 114 157 144 165 84
379 107 532 56z m1547 -115 c65 -40 89 -89 89 -179 -1 -94 -27 -166 -79 -221
-38 -39 -48 -44 -87 -44 -26 0 -57 8 -75 19 l-32 19 -6 -30 c-16 -78 -3 -160
28 -180 21 -14 68 -8 107 14 47 26 86 80 109 151 15 46 20 52 47 55 29 3 29 4
41 87 15 103 60 285 75 304 27 32 199 -9 212 -50 3 -10 -6 -76 -20 -147 -56
-276 -49 -377 19 -308 14 14 33 51 42 85 17 58 19 61 49 61 50 0 85 -33 85
-81 0 -51 -17 -83 -72 -136 -61 -60 -127 -87 -213 -87 -56 -1 -78 4 -109 22
l-38 23 -40 -37 c-66 -59 -139 -87 -228 -88 -90 0 -140 13 -203 55 -66 44 -98
102 -105 191 l-5 71 -17 -54 c-55 -176 -156 -264 -305 -263 -237 0 -347 252
-229 523 35 77 90 148 140 177 40 24 46 25 72 12 17 -9 36 -11 48 -7 10 4 48
8 84 8 138 2 219 -82 220 -229 1 -45 1 -45 24 30 40 134 96 217 171 252 59 27
140 20 201 -18z"/>
<path d="M3394 3165 c-28 -19 -59 -92 -77 -180 -11 -52 -18 -70 -30 -69 -19 2
-33 -85 -22 -134 13 -63 68 -68 104 -9 51 84 94 407 53 407 -4 0 -17 -7 -28
-15z"/>
<path d="M2805 3148 c-28 -76 -46 -138 -51 -179 -6 -46 -5 -49 15 -49 16 0 26
10 37 36 20 47 31 189 15 198 -6 4 -13 1 -16 -6z"/>
<path d="M1675 2828 c-11 -68 -34 -273 -30 -277 11 -10 103 14 157 42 70 37
98 78 98 145 0 74 -69 122 -177 122 -40 0 -42 -2 -48 -32z"/>
<path d="M2605 1868 c-3 -8 -14 -81 -23 -161 -16 -132 -17 -147 -3 -143 9 2
34 7 55 11 55 9 129 48 158 84 56 66 39 158 -34 194 -52 25 -146 35 -153 15z"/>
<path d="M4279 2194 c-18 -50 -49 -168 -49 -191 0 -17 6 -23 21 -23 28 0 50
57 56 151 6 82 -8 114 -28 63z"/>
<path d="M3739 2150 c-21 -12 -66 -113 -86 -194 -12 -50 -20 -66 -32 -64 -24
4 -22 -139 2 -176 20 -31 56 -34 80 -8 46 51 87 219 87 356 0 85 -13 108 -51
86z"/>
</g>
</svg>
