<svg width="24" height="24" viewBox="0 0 24 24" fill="none" xmlns="http://www.w3.org/2000/svg">
<path d="M12 4C16.418 4 20 7.358 20 11.5C20 13.401 19.245 15.137 18 16.46V19C18 19.2652 17.8946 19.5196 17.7071 19.7071C17.5196 19.8946 17.2652 20 17 20H7C6.73478 20 6.48043 19.8946 6.29289 19.7071C6.10536 19.5196 6 19.2652 6 19V16.46C4.755 15.138 4 13.402 4 11.5C4 7.358 7.582 4 12 4Z" stroke="#4E7141" stroke-width="2" stroke-linecap="round" stroke-linejoin="round"/>
<path d="M10 17V20" stroke="#4E7141" stroke-width="2" stroke-linecap="round" stroke-linejoin="round"/>
<path d="M14 17V20" stroke="#4E7141" stroke-width="2" stroke-linecap="round" stroke-linejoin="round"/>
<path d="M8 11C8 11.2652 8.10536 11.5196 8.29289 11.7071C8.48043 11.8946 8.73478 12 9 12C9.26522 12 9.51957 11.8946 9.70711 11.7071C9.89464 11.5196 10 11.2652 10 11C10 10.7348 9.89464 10.4804 9.70711 10.2929C9.51957 10.1054 9.26522 10 9 10C8.73478 10 8.48043 10.1054 8.29289 10.2929C8.10536 10.4804 8 10.7348 8 11Z" stroke="#4E7141" stroke-width="2" stroke-linecap="round" stroke-linejoin="round"/>
<path d="M14 11C14 11.2652 14.1054 11.5196 14.2929 11.7071C14.4804 11.8946 14.7348 12 15 12C15.2652 12 15.5196 11.8946 15.7071 11.7071C15.8946 11.5196 16 11.2652 16 11C16 10.7348 15.8946 10.4804 15.7071 10.2929C15.5196 10.1054 15.2652 10 15 10C14.7348 10 14.4804 10.1054 14.2929 10.2929C14.1054 10.4804 14 10.7348 14 11Z" stroke="#4E7141" stroke-width="2" stroke-linecap="round" stroke-linejoin="round"/>
</svg>
