<!-- 1.57k → 671 bytes 41.86% -->

<svg xmlns="http://www.w3.org/2000/svg" fill="none" viewBox="0 0 533 668">
    <mask id="a" width="531" height="660" x="1" y="4" maskUnits="userSpaceOnUse" style="mask-type:luminance">
    <path fill="#fff" d="m254 664 278-282L279 4 1 286l253 378Z"/></mask><g mask="url(#a)"><path fill="#70825B" fill-opacity=".3" 
        d="M313 495c-4 5-9 11-16 16-17 12-16 7-4-4 7-6 15-20 20-31l-1-9c-10 6-30 17-50 22-28 6-33-2-2-9 22-6 41-18 51-24l-1-4-3-19c-11 
        0-40 0-69-3-35-3-18-9 3-6 16 2 49-4 64-6l-10-58c-10-2-34-6-56-14-31-11-19-13 8-6 19 5 38 7 46 7l-14-83c-8-3-37-13-52-27-15-12-11-13 
        6-3 14 10 39 17 45 18l-13-82 28 134c6-1 14-4 22-12 13-11 17-11 5 3-10 10-21 17-25 20l16 70c4-1 15-4 29-16 19-16 26-13 4 7-15 13-25 20-30 
        23l9 35c12 0 45-1 65-9 26-11 29-10 2 4-21 11-51 18-63 20l3 13c7 2 19 6 32 4 21-2 23 4-1 7-13 2-22 1-27-1 10 23 32 31 42 32 69 11 108-101 
        90-185-14-65-93 21-97-11-4-33 108-32 31-120-35-40-54 37-73 25-29-18 52-44 17-84-17-18-31-31-58-51-26-21-47-32-47-32s-7 39-29 59c-23 20-63 
        35-61 75 5 70 76 76 58 98-13 17-57-15-71-41-16-29-52 39-24 80 36 56 106 37 116 57 13 27-48 16-75 4-27-13-45 68-4 129 52 78 156 84 164-12Z"/>
    </g>
</svg>