<!-- 1.56k → 664 bytes 41.5% -->

<svg xmlns="http://www.w3.org/2000/svg" fill="none" viewBox="0 0 532 668">
    <mask id="a" width="531" height="660" x="0" y="4" maskUnits="userSpaceOnUse" style="mask-type:luminance">
    <path fill="#fff" d="m253 664 278-282L278 4 1 286l252 378Z"/></mask><g mask="url(#a)"><path fill="#D0CAA2"
        d="M312 495c-4 5-9 11-16 16-16 12-16 6-4-4 8-6 15-20 20-31l-1-9c-9 6-30 17-50 22-28 6-33-2-2-9 22-6 42-18 51-24l-1-4-2-19-69-3c-36-3-19-9 
        2-6 16 2 50-4 64-6l-10-58c-10-2-34-6-56-14-31-11-19-13 8-6 20 5 38 7 46 7l-13-83c-9-3-38-13-53-27-15-13-11-14 6-3 15 9 39 17 45 18l-13-82 
        28 134c6-1 14-5 22-12 13-11 18-12 5 3-10 10-20 17-25 20l16 70c5-1 15-4 29-16 20-16 26-13 4 7-15 13-25 20-30 23l9 35c12 0 45-1 65-9 26-11 29-11 
        2 4-21 11-51 18-63 20l3 13c7 2 19 6 32 4 21-2 23 4-1 7-13 2-21 1-27-1 10 23 32 31 42 32 69 11 108-101 90-185-14-65-93 21-97-11-4-33 108-32 31-120-34-40-54 
        37-73 25-29-18 52-45 17-84-17-18-31-31-57-51-27-21-48-32-48-32s-7 39-29 59c-23 20-63 35-60 75 4 70 75 76 57 98-13 17-57-15-71-41-16-29-52 39-24 80 36 56 106 
        37 116 57 13 27-48 16-75 4-27-13-44 68-4 129 52 78 156 84 164-12Z"/>
    </g>
</svg>
