
		<svg
			class="left-svg"
			width="1042"
			height="1101"
			viewBox="0 0 1042 1101"
			fill="none"
			xmlns="http://www.w3.org/2000/svg"
		>
			<g clip-path="url(#clip0_21_3)">
				<path
					d="M348.358 836.868C335.248 836.148 318.889 833.929 299.767 827.654C255.027 812.106 265.006 806.051 300.325 815.397C320.461 820.981 353.619 818.437 377.399 814.115C381.779 809.647 386.159 805.179 390.538 800.711C366.096 789.895 317.695 765.705 278.584 734.445C224.2 690.576 229.461 672.146 288.636 718.69C331.687 752.462 380.411 774.947 405.015 784.911C407.205 782.677 408.542 780.281 410.732 778.047C418.639 768.949 426.707 758.999 434.776 749.049C416.697 727.959 371.396 673.449 330.681 618.042C279.604 547.423 314.57 572.598 343.585 615.19C365.692 647.64 426.822 702.503 453.264 726.062C476.456 696.901 500.661 667.051 525.881 636.509C512.388 614.522 481.946 565.479 459.133 513.466C428.309 443.156 449.43 462.173 480.651 521.079C503.375 564.243 529.951 601.074 542.018 616.608C577.658 573.03 613.459 528.599 646.909 487.254C637.516 466.928 608.441 401.365 604.75 355.627C600.574 312.447 608.981 319.34 619.124 363.652C627.68 402.364 654.594 456.037 661.708 469.749C757.516 351.036 766.967 343.114 766.967 343.114C766.967 343.114 646.439 508.359 608.008 562.006C617.797 570.926 635.949 582.316 660.347 588.708C697.533 597.525 704.764 605.961 663.522 599.908C632.51 595.794 605.672 583.64 594.222 578.82C566.372 618.577 537.67 658.172 511.848 696.547C521.107 703.602 542.185 718.195 581.442 730.054C636.574 746.69 642.513 761.945 578.533 745.398C535.542 734.598 509.233 724.311 496.24 718.315C482.499 739.553 469.081 759.086 456.515 778.78C475.976 801.898 529.316 860.582 573.499 888.388C629.66 922.88 634.496 929.979 570.016 897.441C520.072 872.076 462.764 825.003 440.099 804.81C435.073 812.688 431.061 819.875 426.196 826.9C432.826 843.17 447.216 869.742 470.248 892.654C505.994 927.691 500.322 938.978 456.859 898.063C435.208 877.179 422.612 859.778 416.188 847.08C397.598 893.891 419.72 944.89 434.228 966.185C525.83 1107.19 756.917 1038.85 855.429 901.223C931.278 794.621 679.036 755.624 721.613 708.062C765.203 659.81 939.336 868.562 951.788 616.593C957.617 502.013 809.321 562.204 798.442 512.454C781.169 435.882 947.919 553.16 952.044 438.257C953.379 384.641 949.893 342.475 940.13 268.211C930.368 193.946 913.154 140.346 913.154 140.346C913.154 140.346 843.739 175.754 778.907 159.046C713.223 142.176 627.415 87.0497 570.274 141.564C470.996 236.658 572.622 376.028 512.67 370.842C465.667 367.229 446.245 246.095 462.675 187.394C481.249 122.034 321.634 139.457 303.09 241.912C275.201 379.684 414.951 485.661 399.726 528.695C379.196 585.735 299.823 459.416 276.025 393.97C252.226 328.524 102.314 397.239 73.543 548.974C37.1755 740.774 191.657 941.385 348.358 836.868Z"
					fill="#70825B"
				/>
			</g>
			<defs>
				<clipPath id="clip0_21_3">
					<rect
						width="878.938"
						height="953.529"
						fill="white"
						transform="translate(863.552 1100.58) rotate(-169.264)"
					/>
				</clipPath>
			</defs>
		</svg>