<svg xmlns="http://www.w3.org/2000/svg" fill="none" viewBox="0 0 508 383">
    <g fill="#fff" clip-path="url(#a)">
    <path d="M94 168c14-9 23-20 22-32-1-18-21-32-54-30l-1 1C77 66 105 4 127 6c12 2 20 21 24 37l-3 8-3 16c-1 3-3 9-8 15l-6 8c-2 4-4 6-4 10l-1 7-1 3 5 1c6-1 11-7 12-9l4-10v9l1 12c1 1 5 10 12 10 3 0 6-3 8-5 4-4 5-9 5-14l1-10c1 0 0 7 3 12s8 8 10 7c4-3-4-19-6-24l-10-17c-6-9-9-10-9-16-1-4 1-7-1-11l-2-2c-4-16-13-41-30-43-21-2-45 33-74 107-41 6-54 28-54 28-1 4 6 11 13 11 3-1 13-6 14-8v-3c5-6 13-14 31-15s29 8 30 19c1 12-8 21-21 27h-6l6-34c-8-4-24-6-28 4s-11 53-15 88l-13-4c-5 8-6 16 1 20l10 2v2c2 1 14 6 22 6 4 0 7 0 8-6v-2h4c34-2 69-19 67-46-1-15-13-24-29-28m-40 58 5-44c17-2 30 4 31 16 2 19-19 26-36 28Z"/>
    <path d="M173 198c-2 6-6 13-11 14-2 0-4-3-4-8-1-11 6-41 8-54 3-9-19-11-24-11l-5 2c-4 13-12 51-11 66 1 17 12 24 28 23 10-1 19-6 26-12 8 10 23 14 36 13 20-1 32-13 37-24 7 8 19 12 35 11 32-2 40-50 38-65-1-16-16-30-31-29-9 1-14 7-19 16 2-11 9-37 12-44-1-5-16-10-24-8-5 1-21 65-19 96h-5l-4 2c-1 9-10 28-25 30-7 0-11-3-11-12-1-11 2-20 2-20s5 7 15 6c11 0 23-18 21-40-1-19-20-25-30-24-24 2-37 41-36 72m102-24 3 1h2c0-10 7-35 15-36 4 0 4 4 4 9 0 2-2 52-18 53-4 0-7-4-7-10l1-17Zm-63-30 2-3c1 0 2 0 2 7 1 11-2 27-8 28-3 0-4-4-4-4 1-9 5-20 8-28m134 105c5 0 9-2 12-5 2 3 4 5 8 4 4 0 6-2 6-2 0-7 4-19 7-25h1l-2 14c0 6 3 12 14 11 9 0 14-9 14-13 0-5-7-4-7-4 0 2-2 9-5 9-2 0-3-1-3-5-1-9 4-22 4-31 1-3-8-5-12-5-2 0-3 1-3 2l-10 26 2-22c1-2-4-3-7-3-5 1-8 14-8 29h-1c0 3-2 11-6 12l-2-4c-1-6 3-21 4-27 1-5-10-6-12-6l-2 1c-3 7-7 26-6 33 0 8 6 12 14 11m0-49c9-1 12-7 12-11 0-2-3-3-5-4 1-3-2-4-6-3-7 0-9 9-8 12 0 4 4 6 7 6ZM218 301c14-9 24-20 23-32-2-18-21-32-55-30-46 4-61 29-61 29-1 4 6 11 13 11l14-8v-3c5-6 13-14 31-15s29 8 29 19c1 12-7 21-21 27h-5l5-34c-7-4-23-6-28 4-3 10-10 53-14 88l-14-4c-5 8-6 16 2 20l10 2v2c1 1 14 6 22 6 4 0 7-1 8-6v-2h4c34-2 69-19 67-46-1-15-13-24-30-28m-40 58 6-44c16-2 30 4 31 16 2 19-19 26-37 28Zm94-131-4 2c-7 30-14 85-14 112 0 5-1 13 1 15 1 3 25 9 28 6v-14c1-37 6-76 13-113 0-3-18-8-24-8m66 35c-6 0-9 3-9 3-1-2-4-3-7-4-17 4-32 34-31 57 0 19 12 42 40 40 35-3 42-45 42-64-1-18-7-34-35-32m8 29c-1 8-5 49-18 50-7 0-10-9-9-20l1-10 4 1c1-9 8-35 16-36 6 0 6 10 6 15"/>
    <path d="M492 307c0 6-4 23-12 23-2 1-4-2-4-8-1-11 6-40 9-53 2-9-20-12-25-12-2 1-4 1-5 3-3 9-8 34-11 51h-4l-4 2c-1 10-10 29-26 30-6 0-10-3-10-11-1-12 2-21 2-21 0 1 5 8 15 7 11-1 23-19 21-41-1-18-20-24-30-24-25 2-38 45-35 76 1 21 23 31 43 30 16-2 27-9 33-18 5 5 13 8 23 7 20-1 37-18 36-30s-16-11-16-11m-81-36 2-3c1 0 2 1 2 7 1 11-2 27-8 28-3 0-4-3-4-3 1-9 5-21 8-29m61-23c19-1 25-14 24-20 0-6-5-7-10-9 2-6-3-7-11-7-15 1-18 19-17 25 0 9 9 12 14 11Z"/>
    </g>
    <defs>
    <clipPath id="a">
        <path fill="#fff" d="M0 0h508v383H0z"/>
    </clipPath>
    </defs>
</svg>