<svg width="40" height="18" viewBox="0 0 45 21" fill="none" xmlns="http://www.w3.org/2000/svg">
<path d="M0 19.5C0 18.6716 0.671573 18 1.5 18H33.5C34.3284 18 35 18.6716 35 19.5C35 20.3284 34.3284 21 33.5 21H1.5C0.671574 21 0 20.3284 0 19.5Z" fill="#fff"/>
<path d="M0 1.5C0 0.671573 0.671573 0 1.5 0H38.5C39.3284 0 40 0.671573 40 1.5C40 2.32843 39.3284 3 38.5 3H1.5C0.671574 3 0 2.32843 0 1.5Z" fill="#fff"/>
<path d="M0 10.5C0 9.67157 0.671573 9 1.5 9H43.5C44.3284 9 45 9.67157 45 10.5C45 11.3284 44.3284 12 43.5 12H1.5C0.671574 12 0 11.3284 0 10.5Z" fill="#fff"/>
</svg>