<svg xmlns="http://www.w3.org/2000/svg" fill="none" viewBox="0 0 33 34">
  <path fill="#75A833" stroke="#000" d="M16.52 16.88c-1.26 5.5-.92 8.9.49 14.09.26.97-.26 1.99-1.2 2.33a1.87 1.87 0 0 1-2.46-1.28 29.92 29.92 0 0 1-.65-12.87c.07-.55.33-1.06.71-1.46l1.6-1.64a.9.9 0 0 1 1.51.83ZM32.32 5.62C33.58 18.99 19 19.14 17.53 17.46c-1.46-1.68-1.3-2.04-1.3-2.04 4.39-6.5 7.45-9.31 16.1-9.8Z"/>
  <path fill="#AADB54" stroke="#000" d="M15.47 5.41c-2.48 4.58.75 10 .75 10 5.3-7.72 8.43-9.18 16.1-9.8-.75-7.34-14.36-4.77-16.85-.2Z"/>
  <path fill="#75A833" stroke="#000" d="M1.25 7.05C2.93 6 12.68 8.26 16.04 15l-1.88 1.63-1.68 1.43C6.85 22.2-.44 8.1 1.25 7.05Z"/>
  <path fill="#AADB54" stroke="#000" d="M16.04 15.01c-1.62-3.87-2.03-5.97-.75-9.4-2.89-7.48-13.6.92-13.48 1.23.11.32 9.6.15 14.23 8.17Z"/>
</svg>