		<svg
			class="right-svg"
			width="1010"
			height="1002"
			viewBox="0 0 1010 1002"
			fill="none"
			xmlns="http://www.w3.org/2000/svg"
		>
			<g clip-path="url(#clip0_20_2)">
				<path
					d="M750.319 414.076C757.841 421.013 766.571 430.462 774.95 443.72C794.124 475.26 785.122 473.949 768.533 450.81C759.203 437.464 738.014 422.543 721.578 413.342C716.73 413.854 711.881 414.367 707.032 414.879C716.355 433.506 733.441 472.055 741.438 510.245C752.356 563.59 740.051 572.056 727.58 514.727C718.463 473.072 700.337 435.387 690.494 417.192C688.069 417.449 686.077 418.225 683.652 418.481C674.387 420.026 664.602 422.003 654.816 423.98C655.218 445.623 655.399 500.857 652.379 554.354C648.04 622.134 639.516 589.657 643.209 549.666C646.023 519.197 636.504 455.898 632.301 428.622C603.897 434.64 574.54 440.571 544.232 446.414C541.433 466.322 535.396 510.898 523.302 553.474C506.944 611.02 503.686 589.113 514.147 538.223C521.905 501.009 524.206 465.69 524.661 450.368C481.623 458.876 438.064 467.816 397.45 476.068C393.011 492.943 377.957 546.769 357.484 576.087C338.571 604.109 336.938 595.796 352.826 564.133C366.89 536.624 377.344 491.015 379.871 479.245C263.398 503.056 253.789 503.129 253.789 503.129C253.789 503.129 408.203 463.617 457.914 450.444C456.457 440.226 451.198 424.376 439.707 408.43C421.734 384.683 421.573 376.025 443.355 400.124C459.951 417.982 470.051 438.601 474.54 447.178C511.002 437.102 547.895 427.547 582.452 417.295C580.386 408.461 574.96 389.234 557.251 362.631C532.371 325.282 536.371 313.168 566.612 354.853C587.089 382.673 597.797 401.907 602.63 411.957C621.425 406.011 639.18 400.929 656.502 395.327C656.276 371.779 653.334 310.048 640.577 271.418C623.938 222.827 624.553 216.162 647.161 267.705C664.592 307.727 675.678 364.448 679.281 387.828C686.21 385.587 692.187 383.259 698.596 381.45C702.683 368.383 707.218 345.275 704.743 320.079C700.643 281.289 709.653 277.319 715.473 323.471C718.124 346.763 717.061 363.47 714.622 374.288C749.018 355.378 761.024 313.755 762.871 293.759C777.774 163.576 604.995 89.9975 477.513 123.835C379.043 150.269 511.285 298.847 462.102 306.307C411.966 313.679 410.884 101.835 278.394 247.083C218.046 313.05 337.029 350.45 318.885 385.745C291.277 440.332 249.249 287.124 189.765 354.131C162.363 385.69 143.538 412.759 112.562 462.234C81.5848 511.708 65.3377 552.46 65.3377 552.46C65.3377 552.46 124.621 565.619 155.293 607.824C186.398 650.55 210.617 726.249 272.003 721.837C378.844 713.941 386.913 579.766 420.37 612.626C446.824 638.116 398.399 720.549 359.403 747.676C315.815 777.74 420.382 846.458 482.356 794.085C567.468 725.124 536.059 592.103 566.559 573.794C607.195 549.7 592.227 664.993 574.06 716.13C555.894 767.268 680.077 800.347 772.646 723.432C889.657 626.209 896.345 429.007 750.319 414.076Z"
					fill="#70825B"
				/>
			</g>
			<defs>
				<clipPath id="clip0_20_2">
					<rect
						width="684.949"
						height="743.077"
						fill="white"
						transform="translate(571.533) rotate(50.2771)"
					/>
				</clipPath>
			</defs>
		</svg>
        