<svg width="24" height="24" viewBox="0 0 24 24" fill="none" xmlns="http://www.w3.org/2000/svg">
<path d="M13.905 2.923L14.003 3.058L18.923 10.364C19.5018 11.329 19.8582 12.4109 19.966 13.531L19.99 13.857C19.997 13.904 20 13.951 20 14L19.998 14.06C20.054 16.36 19.054 18.642 17.128 20.2C14.159 22.602 9.842 22.602 6.873 20.2C4.969 18.66 3.969 16.413 4.008 14.129C3.99461 14.018 3.999 13.9056 4.021 13.796C4.09062 12.6835 4.40221 11.5996 4.934 10.62L5.106 10.318L9.999 3.058C10.184 2.783 10.425 2.549 10.708 2.372C11.763 1.712 13.154 1.959 13.905 2.922V2.923ZM11.845 4.03L11.768 4.068L11.727 4.098L11.69 4.134L11.657 4.176L6.794 11.39C6.4947 11.8896 6.27507 12.4328 6.143 13H17.866C17.7599 12.543 17.5952 12.1017 17.376 11.687L17.235 11.436L12.344 4.175C12.2882 4.09922 12.209 4.04395 12.1186 4.01774C12.0282 3.99153 11.9317 3.99584 11.844 4.03H11.845Z" fill="#4E7141"/>
</svg>
