<?xml version="1.0" standalone="no"?>
<!DOCTYPE svg PUBLIC "-//W3C//DTD SVG 20010904//EN"
 "http://www.w3.org/TR/2001/REC-SVG-20010904/DTD/svg10.dtd">
<svg version="1.0" xmlns="http://www.w3.org/2000/svg"
 width="100.000000pt" height="100.000000pt" viewBox="0 0 100.000000 100.000000"
 preserveAspectRatio="xMidYMid meet">
<metadata>
Created by potrace 1.14, written by Peter Selinger 2001-2017
</metadata>
<g transform="translate(0.000000,100.000000) scale(0.100000,-0.100000)"
fill="#000000" stroke="none">
<path d="M323 985 c-65 -20 -127 -60 -171 -110 -82 -94 -75 -131 38 -186 53
-26 75 -42 75 -55 0 -23 -12 -23 -95 -3 -100 25 -130 1 -130 -106 0 -72 23
-95 95 -95 56 0 98 -21 79 -39 -5 -6 -37 -13 -69 -15 -74 -5 -88 -21 -80 -91
7 -55 64 -275 72 -275 3 0 27 8 53 17 42 15 57 15 126 4 44 -7 88 -14 99 -15
80 -12 137 83 113 186 -18 80 -18 86 -2 92 37 14 84 -81 84 -172 0 -51 27 -60
86 -32 51 25 69 58 68 124 0 59 -17 95 -85 184 -51 66 -58 86 -35 95 17 7 76
-50 117 -115 35 -54 55 -59 104 -30 67 41 111 146 103 245 -9 105 -86 222
-166 248 -38 13 -105 5 -134 -15 -17 -12 -15 -14 24 -21 39 -8 40 -9 13 -12
-63 -7 -95 -14 -95 -21 0 -4 29 -20 64 -35 35 -16 72 -37 82 -48 23 -26 19
-25 -62 16 -78 39 -110 44 -118 17 -5 -14 12 -37 64 -88 75 -75 109 -125 38
-58 -63 60 -116 97 -130 91 -7 -3 -24 -25 -37 -49 l-24 -44 54 -77 c29 -42 51
-79 48 -81 -3 -3 -29 26 -59 64 -30 39 -56 70 -57 70 -2 0 -24 -32 -50 -71
l-46 -72 25 -51 c14 -28 28 -67 32 -86 5 -25 -3 -14 -29 40 l-36 75 -19 -25
c-30 -38 -24 -18 15 51 20 34 34 68 31 75 -2 6 -22 16 -43 22 l-38 11 41 -3
c23 -2 46 -6 51 -9 8 -5 83 118 83 136 0 3 -25 11 -55 18 -30 7 -55 16 -55 20
0 4 10 6 23 3 12 -2 41 -6 63 -9 39 -5 42 -3 57 27 17 35 21 28 -45 82 -12 11
-41 31 -63 44 -61 36 -1 16 71 -24 33 -19 64 -34 67 -34 19 0 3 37 -29 67 -46
43 -40 52 8 13 19 -16 38 -27 41 -24 9 10 -3 57 -24 91 -41 66 -139 96 -226
68z m-20 -700 c-3 -9 -8 -14 -10 -11 -3 3 -2 9 2 15 9 16 15 13 8 -4z"/>
</g>
</svg>
