<svg width="50" height="50" viewBox="0 0 50 50" fill="white" xmlns="http://www.w3.org/2000/svg">
<path d="M25 4.6875C20.9826 4.6875 17.0554 5.87881 13.715 8.11077C10.3746 10.3427 7.77111 13.5151 6.23371 17.2267C4.6963 20.9384 4.29405 25.0225 5.07781 28.9628C5.86157 32.903 7.79615 36.5224 10.6369 39.3631C13.4777 42.2039 17.097 44.1384 21.0372 44.9222C24.9775 45.706 29.0616 45.3037 32.7733 43.7663C36.4849 42.2289 39.6573 39.6254 41.8892 36.285C44.1212 32.9446 45.3125 29.0174 45.3125 25C45.3068 19.6145 43.1649 14.4513 39.3568 10.6432C35.5487 6.83507 30.3855 4.69319 25 4.6875ZM24.2188 14.0625C24.6823 14.0625 25.1354 14.2 25.5209 14.4575C25.9063 14.715 26.2067 15.0811 26.3841 15.5093C26.5615 15.9376 26.6079 16.4089 26.5175 16.8635C26.427 17.3181 26.2038 17.7358 25.876 18.0635C25.5483 18.3913 25.1306 18.6145 24.676 18.705C24.2214 18.7954 23.7501 18.749 23.3218 18.5716C22.8936 18.3942 22.5275 18.0938 22.27 17.7084C22.0125 17.3229 21.875 16.8698 21.875 16.4062C21.875 15.7846 22.1219 15.1885 22.5615 14.749C23.001 14.3094 23.5972 14.0625 24.2188 14.0625ZM26.5625 35.9375C25.7337 35.9375 24.9389 35.6083 24.3528 35.0222C23.7668 34.4362 23.4375 33.6413 23.4375 32.8125V25C23.0231 25 22.6257 24.8354 22.3327 24.5424C22.0396 24.2493 21.875 23.8519 21.875 23.4375C21.875 23.0231 22.0396 22.6257 22.3327 22.3326C22.6257 22.0396 23.0231 21.875 23.4375 21.875C24.2663 21.875 25.0612 22.2042 25.6472 22.7903C26.2333 23.3763 26.5625 24.1712 26.5625 25V32.8125C26.9769 32.8125 27.3743 32.9771 27.6674 33.2701C27.9604 33.5632 28.125 33.9606 28.125 34.375C28.125 34.7894 27.9604 35.1868 27.6674 35.4799C27.3743 35.7729 26.9769 35.9375 26.5625 35.9375Z" fill="white"/>
</svg>
