<?xml version="1.0" encoding="UTF-8"?><svg id="Laag_2" xmlns="http://www.w3.org/2000/svg" viewBox="0 0 234.5 342.11"><defs><style>.cls-1{stroke-width:3px;}.cls-1,.cls-2,.cls-3,.cls-4,.cls-5,.cls-6{stroke-miterlimit:10;}.cls-1,.cls-2,.cls-3,.cls-5,.cls-6{stroke:#000;}.cls-1,.cls-2,.cls-4,.cls-5{fill:none;}.cls-2,.cls-6{stroke-width:6px;}.cls-3{fill:#a9db54;}.cls-4{stroke:#823a37;}.cls-4,.cls-5{stroke-width:4px;}.cls-6,.cls-7{fill:#c17052;}.cls-8{fill:#75a833;}.cls-8,.cls-9,.cls-10,.cls-7{stroke-width:0px;}.cls-9{fill:#ac5346;}.cls-10{fill:#db9364;}</style></defs><g id="harry"><path id="been_l" class="cls-6" d="m62.64,297.11l8.36,34.18c1.25,5.24,5.73,8.47,10,7.72,3.41-.6,6.26-3.67,7.12-7.72,1.58-11.39,3.16-22.78,4.74-34.18h-30.22Z"/><path id="been_r" class="cls-6" d="m162.87,297.11l-8.36,34.18c-1.25,5.24-5.73,8.47-10,7.72-3.41-.6-6.26-3.67-7.12-7.72-1.58-11.39-3.16-22.78-4.74-34.18h30.22Z"/><path id="arm_l" class="cls-6" d="m14.83,191.11c5.51-8.57,16.66-18.86,23-16,7.58,3.42,4.47,23.9,4,27-2.77,18.27-13.42,29.37-18,34-5.1,5.17-10.35,10.47-14,9-6.82-2.75-2.82-27.02-2-32,1.45-8.77,2.55-15.08,7-22Z"/><path id="arm_r" class="cls-6" d="m223.98,192.23c-5.21-8.76-16-19.43-22.44-16.78-7.69,3.16-5.29,23.73-4.93,26.85,2.14,18.36,12.4,29.81,16.82,34.6,4.92,5.34,9.98,10.82,13.68,9.48,6.91-2.51,3.75-26.9,3.1-31.91-1.14-8.82-2.03-15.16-6.24-22.23Z"/><g id="pot"><path class="cls-7" d="m13.01,92.11h201c1.76.07,4.07.46,6,2,3.4,2.71,3.1,6.96,3,22-.09,12.87.09,16.92-3,19-1.89,1.27-4.19,1.26-6,.98-3.67,43.67-7.33,87.35-11,131.02-.23,2.09-2.28,18.12-16,26-5.83,3.35-11.55,3.95-15,4H54.64c-2.69,0-11.64-.36-19.63-7-10.79-8.98-11-22.11-11-24-3.67-43.08-7.33-86.17-11-129.25-2.11.14-4.83-.08-7-1.75-3.15-2.43-3.03-6.3-3-21,.02-13.8-.07-17.52,3-20,2.24-1.8,5.04-2.06,7-2Z"/><path class="cls-9" d="m154.07,132.31l-3.06,134.8s-1.4,24-25.7,30h37.56s18.76,0,18.76,0l13.5-10.93,7.37-15.95,10.09-117.14,1.43-22.98-59.94,2.2Z"/><path class="cls-10" d="m38.01,94.11s-4,3-4,10v28.2h35v-32.43s-.59-5.79,4.21-7.78-35.21,2.01-35.21,2.01Z"/><path class="cls-10" d="m40.28,134.11l11.73,133s1.06,19,21.03,30h23.09s-18.12-11-20.12-34l-3.51-130.8-32.22,1.8Z"/><line class="cls-4" x1="12.01" y1="134.11" x2="217.01" y2="134.11"/><path class="cls-9" d="m6.47,126.6s1.01,4.18,5.04,3.13h148.05v-30.59s0-3.86-3.02-4.9v-3.13l60.43,1.53,5.1,4.56v36.91H3.45l-.45-5.7.45-1.81h3.02Z"/><path class="cls-2" d="m13.01,92.11h201c1.76.07,4.07.46,6,2,3.4,2.71,3.1,6.96,3,22-.09,12.87.09,16.92-3,19-1.89,1.27-4.19,1.26-6,.98-3.67,43.67-7.33,87.35-11,131.02-.23,2.09-2.28,18.12-16,26-5.83,3.35-11.55,3.95-15,4H54.64c-2.69,0-11.64-.36-19.63-7-10.79-8.98-11-22.11-11-24-3.67-43.08-7.33-86.17-11-129.25-2.11.14-4.83-.08-7-1.75-3.15-2.43-3.03-6.3-3-21,.02-13.8-.07-17.52,3-20,2.24-1.8,5.04-2.06,7-2Z"/></g><g id="plant"><path class="cls-8" d="m133.27,91.55c2.16-7.16,4.12-16.08,4.75-26.44.31-5.05.26-9.74,0-14,2.7.23,10.2.52,18-4,8.58-4.98,12.02-12.58,13-15,.48-1.19,2.66-6.9,0-13-2.51-5.74-8.33-9.6-15-10-2.67-.22-6.55-.21-11,1-7.07,1.92-11.74,5.82-14,8-1.91-2.22-4.86-5.21-9-8-3.38-2.27-9.57-6.45-18-7-2.93-.19-14.84-.97-21,7-8.24,10.66,1.45,27.1,2,28,1.39,2.29,7.19,11.47,19,14,9.94,2.13,17.83-1.82,20-3,.83,4.85,1.41,10.97,1,18-.6,10.29-3.09,18.65-5.35,24.44h15.6Z"/><path class="cls-3" d="m169.52,19.61c-.54,2.29-6.48,1.63-13,3-18.19,3.82-31.17,21.18-30.33,20.11,1.18-1.5,2.46-3.53,3.33-6.11,2.58-7.7-3.52-13.12-2-18,2.3-7.4,17.46-7.82,22-8,5.46-.21,9.14.73,12,2,3.3,1.47,8.54,4.73,8,7Z"/><path class="cls-3" d="m79.52,13.61c7.65,2.46,17,6.19,27,12,8.57,4.98,15.54,10.27,21,15,.56-1.61,5.18-15.63-3-27-9.04-12.56-28.53-14.66-39-7-2.98,2.18-4.84,4.87-6,7Z"/><path class="cls-1" d="m125.42,14.39s14.63,24.89-9.88,37.31"/><path class="cls-1" d="m127.46,40.55c.81,1.58,2.61,4.56,6.06,7.06,3.44,2.5,6.82,3.29,8.57,3.57"/><path class="cls-2" d="m133.27,91.55c2.16-7.16,4.12-16.08,4.75-26.44.31-5.05.26-9.74,0-14,2.7.23,10.2.52,18-4,8.58-4.98,12.02-12.58,13-15,.48-1.19,2.66-6.9,0-13-2.51-5.74-8.33-9.6-15-10-2.67-.22-6.55-.21-11,1-7.07,1.92-11.74,5.82-14,8-1.91-2.22-4.86-5.21-9-8-3.38-2.27-9.57-6.45-18-7-2.93-.19-14.84-.97-21,7-8.24,10.66,1.45,27.1,2,28,1.39,2.29,7.19,11.47,19,14,9.94,2.13,17.83-1.82,20-3,.83,4.85,1.41,10.97,1,18-.6,10.29-3.09,18.65-5.35,24.44h15.6Z"/></g><g id="billlen"><g id="bil_l"><circle class="cls-7" cx="67.92" cy="278.53" r="32.91"/><path class="cls-10" d="m39.01,294.11c-.22-2.72-1.38-21.11,12.66-35.02,10.39-10.3,22.88-11.96,26.71-12.32-2.12-.6-16.74-4.49-29.09,4.39-8.18,5.88-11.02,14.01-11.9,16.66-4.19,12.69.39,23.58,1.62,26.29Z"/><path class="cls-9" d="m99.26,271.9c-1.77,5.02-5.63,13.79-13.92,21.88-11.57,11.31-24.76,14.45-30.11,15.41,2.57,1.19,7.34,3,13.48,2.93,10.06-.12,17.06-5.17,19.41-7.04,2.34-1.97,7.98-7.25,10.62-16.17,2.24-7.58,1.2-14,.51-17.01Z"/><path class="cls-5" d="m92.23,300.69c-13.18,13.77-35.04,13.8-47.65,1.19-13.2-13.21-12.4-36.4,2.95-49.18"/></g><g id="bil_r"><circle class="cls-7" cx="117.09" cy="277.73" r="32.91"/><path class="cls-10" d="m100.51,305.07c-7.35-13.47-5.92-29.88,3.49-41.21,12.7-15.3,32.7-12.64,33.75-12.48-.73-.56-15.64-11.71-32.97-4.89-1.01.4-17.09,7.05-20.3,24.03-2.49,13.21,3.87,27.03,16.02,34.55Z"/><path class="cls-9" d="m138.11,303.51c-2.38.79-18.02,5.71-33.6-3.41-13.98-8.17-17.99-21.84-18.75-24.62-.29,3.32-.44,9.26,1.68,15.73,3.48,10.58,10.7,15.47,13.29,17.03,1.71.96,5.17,2.66,9.92,3.33.84.12,4.38.59,9.25-.16,8.19-1.27,14.5-5.13,18.21-7.9Z"/><path class="cls-5" d="m146.88,292.99c-10.07,16.83-31.69,21.97-47.01,12.78-16.41-9.85-21.43-33.68-8.73-50.5"/></g></g></g></svg>