<?xml version="1.0" encoding="UTF-8"?><svg id="Laag_2" xmlns="http://www.w3.org/2000/svg" viewBox="0 0 269.3 388.11"><defs><style>.cls-1{stroke-width:3px;}.cls-1,.cls-2,.cls-3,.cls-4,.cls-5,.cls-6,.cls-7{stroke-miterlimit:10;}.cls-1,.cls-2,.cls-3,.cls-4,.cls-5,.cls-7{stroke:#000;}.cls-1,.cls-2,.cls-6{fill:none;}.cls-2,.cls-7{stroke-width:6px;}.cls-3{fill:#0071bc;}.cls-3,.cls-4,.cls-6{stroke-width:4px;}.cls-4{fill:#29abe2;}.cls-5{fill:#a9db54;}.cls-6{stroke:#823a37;}.cls-8,.cls-9,.cls-10,.cls-11,.cls-12,.cls-13{stroke-width:0px;}.cls-7,.cls-12{fill:#c17052;}.cls-9{fill:#75a833;}.cls-10{fill:#ac5346;}.cls-11{fill:#db9364;}.cls-13{fill:#fff;}</style></defs><g id="harry"><path id="been_l" class="cls-7" d="m97.44,297.11l8.36,34.18c1.25,5.24,5.73,8.47,10,7.72,3.41-.6,6.26-3.67,7.12-7.72,1.58-11.39,3.16-22.78,4.74-34.18h-30.22Z"/><path id="been_r" class="cls-7" d="m197.66,297.11l-8.36,34.18c-1.25,5.24-5.73,8.47-10,7.72-3.41-.6-6.26-3.67-7.12-7.72-1.58-11.39-3.16-22.78-4.74-34.18h30.22Z"/><path id="arm_l" class="cls-7" d="m39.62,191.11c5.51-8.57,16.66-18.86,23-16,7.58,3.42,4.47,23.9,4,27-2.77,18.27-13.42,29.37-18,34-5.1,5.17-10.35,10.47-14,9-6.82-2.75-2.82-27.02-2-32,1.45-8.77,2.55-15.08,7-22Z"/><path id="arm_r" class="cls-7" d="m258.77,192.23c-5.21-8.76-16-19.43-22.44-16.78-7.69,3.16-5.29,23.73-4.93,26.85,2.14,18.36,12.4,29.81,16.82,34.6,4.92,5.34,9.98,10.82,13.68,9.48,6.91-2.51,3.75-26.9,3.1-31.91-1.14-8.82-2.03-15.16-6.24-22.23Z"/><g id="pot"><path class="cls-12" d="m47.8,92.11h201c1.76.07,4.07.46,6,2,3.4,2.71,3.1,6.96,3,22-.09,12.87.09,16.92-3,19-1.89,1.27-4.19,1.26-6,.98-3.67,43.67-7.33,87.35-11,131.02-.23,2.09-2.28,18.12-16,26-5.83,3.35-11.55,3.95-15,4h-117.37c-2.69,0-11.64-.36-19.63-7-10.79-8.98-11-22.11-11-24-3.67-43.08-7.33-86.17-11-129.25-2.11.14-4.83-.08-7-1.75-3.15-2.43-3.03-6.3-3-21,.02-13.8-.07-17.52,3-20,2.24-1.8,5.04-2.06,7-2Z"/><path class="cls-10" d="m188.86,132.31l-3.06,134.8s-1.4,24-25.7,30h37.56s18.76,0,18.76,0l13.5-10.93,7.37-15.95,10.09-117.14,1.43-22.98-59.94,2.2Z"/><path class="cls-11" d="m72.8,94.11s-4,3-4,10v28.2h35v-32.43s-.59-5.79,4.21-7.78-35.21,2.01-35.21,2.01Z"/><path class="cls-11" d="m75.08,134.11l11.73,133s1.06,19,21.03,30h23.09s-18.12-11-20.12-34l-3.51-130.8-32.22,1.8Z"/><line class="cls-6" x1="46.8" y1="134.11" x2="251.8" y2="134.11"/><path class="cls-10" d="m41.27,126.6s1.01,4.18,5.04,3.13h148.05v-30.59s0-3.86-3.02-4.9v-3.13l60.43,1.53,5.1,4.56v36.91H38.25l-.45-5.7.45-1.81h3.02Z"/><path class="cls-2" d="m47.8,92.11h201c1.76.07,4.07.46,6,2,3.4,2.71,3.1,6.96,3,22-.09,12.87.09,16.92-3,19-1.89,1.27-4.19,1.26-6,.98-3.67,43.67-7.33,87.35-11,131.02-.23,2.09-2.28,18.12-16,26-5.83,3.35-11.55,3.95-15,4h-117.37c-2.69,0-11.64-.36-19.63-7-10.79-8.98-11-22.11-11-24-3.67-43.08-7.33-86.17-11-129.25-2.11.14-4.83-.08-7-1.75-3.15-2.43-3.03-6.3-3-21,.02-13.8-.07-17.52,3-20,2.24-1.8,5.04-2.06,7-2Z"/></g><g id="sjaal"><path class="cls-4" d="m51.48,204.71s90.32,26.4,193.32,4.4c0,0,4,11.14,4,15.07,0,0-219.65,57.13-197.32-19.47Z"/><path class="cls-3" d="m107.36,263.48s6.44,27.63-20.56,57.63c0,0-32,33-32,56,0,0,0,9-11,9,0,0-47-3-41-29,0,0,3.42-33.04,33.71-57.02,0,0,26.88-27.4,22.58-47.69l48.27,11.08Z"/><path class="cls-3" d="m260.8,264.11s2.11-14.75-3.95-41.37c0,0-95.43,8.57-205.74-18.03,0,0-11.31,32.4-10.31,42.4,0,0-3,3,26,10,0,0,127,29,194,7Z"/><path class="cls-4" d="m110.24,215.87c-14.66-2.13-29.95-4.82-45.63-8.19-4.23,5.39-13.5,19.47-17.89,43.7,3.88,1.4,9.67,3.13,18.32,5.22,0,0,15.87,3.62,39.34,7.33-1.55-7.82-2.8-24.3,5.85-48.06Z"/><path class="cls-4" d="m206.8,224.11c-8.97-.36-18.07-.79-27.29-1.31-10.68-.6-21.2-1.3-31.53-2.09.21,14.45,1.23,32.09,4.15,49.49,8.31.89,17.22,1.57,26.67,1.91,9.55.34,18.57.3,27,0-.46-8.14-.64-16.94-.38-26.32.22-7.65.71-14.89,1.38-21.68Z"/><path class="cls-4" d="m11.58,330.55c-7.78,14.94-9.05,27.13-9.05,27.13-.66,2.84-.68,5.41-.2,7.73,4.83,3.77,21.37,14.18,52.28,10.22.61-7.87,4.58-16.71,9.53-24.93-10.65-2.8-34.25-9.7-52.56-20.16Z"/><path class="cls-4" d="m80.66,328.2c3.47-4.05,5.87-6.52,5.87-6.52,8.37-9.3,13.53-18.38,16.66-26.47-11.8-3.57-33.64-10.72-49.27-18.91-6.81,13.28-17.67,24.37-17.67,24.37-2.86,2.27-5.48,4.61-7.89,7.01,5.67,5.09,21.34,16.36,52.31,20.54Z"/></g><g id="plant"><path class="cls-9" d="m139.55,91.55c-2.16-7.16-4.12-16.08-4.75-26.44-.31-5.05-.26-9.74,0-14-2.7.23-10.2.52-18-4-8.58-4.98-12.02-12.58-13-15-.48-1.19-2.66-6.9,0-13,2.51-5.74,8.33-9.6,15-10,2.67-.22,6.55-.21,11,1,7.07,1.92,11.74,5.82,14,8,1.91-2.22,4.86-5.21,9-8,3.38-2.27,9.57-6.45,18-7,2.93-.19,14.84-.97,21,7,8.24,10.66-1.45,27.1-2,28-1.39,2.29-7.19,11.47-19,14-9.94,2.13-17.83-1.82-20-3-.83,4.85-1.41,10.97-1,18,.6,10.29,3.09,18.65,5.35,24.44h-15.6Z"/><path class="cls-5" d="m103.3,19.61c.54,2.29,6.48,1.63,13,3,18.19,3.82,31.17,21.18,30.33,20.11-1.18-1.5-2.46-3.53-3.33-6.11-2.58-7.7,3.52-13.12,2-18-2.3-7.4-17.46-7.82-22-8-5.46-.21-9.14.73-12,2-3.3,1.47-8.54,4.73-8,7Z"/><path class="cls-5" d="m193.3,13.61c-7.65,2.46-17,6.19-27,12-8.57,4.98-15.54,10.27-21,15-.56-1.61-5.18-15.63,3-27,9.04-12.56,28.53-14.66,39-7,2.98,2.18,4.84,4.87,6,7Z"/><path class="cls-1" d="m147.4,14.39s-14.63,24.89,9.88,37.31"/><path class="cls-1" d="m145.36,40.55c-.81,1.58-2.61,4.56-6.06,7.06-3.44,2.5-6.82,3.29-8.57,3.57"/><path class="cls-2" d="m139.55,91.55c-2.16-7.16-4.12-16.08-4.75-26.44-.31-5.05-.26-9.74,0-14-2.7.23-10.2.52-18-4-8.58-4.98-12.02-12.58-13-15-.48-1.19-2.66-6.9,0-13,2.51-5.74,8.33-9.6,15-10,2.67-.22,6.55-.21,11,1,7.07,1.92,11.74,5.82,14,8,1.91-2.22,4.86-5.21,9-8,3.38-2.27,9.57-6.45,18-7,2.93-.19,14.84-.97,21,7,8.24,10.66-1.45,27.1-2,28-1.39,2.29-7.19,11.47-19,14-9.94,2.13-17.83-1.82-20-3-.83,4.85-1.41,10.97-1,18,.6,10.29,3.09,18.65,5.35,24.44h-15.6Z"/></g><g id="ogen"><g id="neutraal"><circle class="cls-8" cx="113.3" cy="175.61" r="16.5"/><circle class="cls-8" cx="182.3" cy="175.61" r="16.5"/><circle class="cls-13" cx="186.8" cy="175.11" r="6"/><circle class="cls-13" cx="117.8" cy="175.11" r="6"/></g><g id="sangry"><path class="cls-8" d="m120.41,161.59c5.38,1.28,11.41,13.23,6.04,22.54-4.56,7.89-14.65,10.6-22.54,6.04-9.19-5.3-10.03-19.39-6.04-22.54,1.34-1.06,2.48-.3,6.08-.53,9.44-.61,12.21-6.52,16.46-5.51Z"/><path class="cls-8" d="m191.79,190.08c-7.89,4.56-17.98,1.85-22.54-6.04-5.28-9.15.49-21.01,6.04-22.54,3.36-.93,5.07,2.36,14.59,4.28,5.31,1.07,6.5.39,7.95,1.76,4.09,3.89,2.97,17.34-6.04,22.54Z"/><circle class="cls-13" cx="186.8" cy="175.11" r="6"/><circle class="cls-13" cx="117.8" cy="175.11" r="6"/></g></g></g></svg>