<?xml version="1.0" encoding="UTF-8"?><svg id="Laag_2" xmlns="http://www.w3.org/2000/svg" viewBox="0 0 241.59 342.11"><defs><style>.cls-1{stroke-width:3px;}.cls-1,.cls-2,.cls-3,.cls-4,.cls-5{stroke-miterlimit:10;}.cls-1,.cls-2,.cls-3,.cls-5{stroke:#000;}.cls-1,.cls-2,.cls-4{fill:none;}.cls-2,.cls-5{stroke-width:6px;}.cls-3{fill:#a9db54;}.cls-4{stroke:#823a37;stroke-width:4px;}.cls-6,.cls-7,.cls-8,.cls-9,.cls-10,.cls-11{stroke-width:0px;}.cls-5,.cls-10{fill:#c17052;}.cls-7{fill:#75a833;}.cls-8{fill:#ac5346;}.cls-9{fill:#db9364;}.cls-11{fill:#fff;}</style></defs><g id="harry"><path id="been_l" class="cls-5" d="m69.73,297.11l8.36,34.18c1.25,5.24,5.73,8.47,10,7.72,3.41-.6,6.26-3.67,7.12-7.72,1.58-11.39,3.16-22.78,4.74-34.18h-30.22Z"/><path id="been_r" class="cls-5" d="m169.95,297.11l-8.36,34.18c-1.25,5.24-5.73,8.47-10,7.72-3.41-.6-6.26-3.67-7.12-7.72-1.58-11.39-3.16-22.78-4.74-34.18h30.22Z"/><path id="arm_l" class="cls-5" d="m11.91,191.11c5.51-8.57,16.66-18.86,23-16,7.58,3.42,4.47,23.9,4,27-2.77,18.27-13.42,29.37-18,34-5.1,5.17-10.35,10.47-14,9-6.82-2.75-2.82-27.02-2-32,1.45-8.77,2.55-15.08,7-22Z"/><path id="arm_r" class="cls-5" d="m231.06,192.23c-5.21-8.76-16-19.43-22.44-16.78-7.69,3.16-5.29,23.73-4.93,26.85,2.14,18.36,12.4,29.81,16.82,34.6,4.92,5.34,9.98,10.82,13.68,9.48,6.91-2.51,3.75-26.9,3.1-31.91-1.14-8.82-2.03-15.16-6.24-22.23Z"/><g id="pot"><path class="cls-10" d="m20.09,92.11h201c1.76.07,4.07.46,6,2,3.4,2.71,3.1,6.96,3,22-.09,12.87.09,16.92-3,19-1.89,1.27-4.19,1.26-6,.98-3.67,43.67-7.33,87.35-11,131.02-.23,2.09-2.28,18.12-16,26-5.83,3.35-11.55,3.95-15,4H61.72c-2.69,0-11.64-.36-19.63-7-10.79-8.98-11-22.11-11-24-3.67-43.08-7.33-86.17-11-129.25-2.11.14-4.83-.08-7-1.75-3.15-2.43-3.03-6.3-3-21,.02-13.8-.07-17.52,3-20,2.24-1.8,5.04-2.06,7-2Z"/><path class="cls-8" d="m161.15,132.31l-3.06,134.8s-1.4,24-25.7,30h37.56s18.76,0,18.76,0l13.5-10.93,7.37-15.95,10.09-117.14,1.43-22.98-59.94,2.2Z"/><path class="cls-9" d="m45.09,94.11s-4,3-4,10v28.2h35v-32.43s-.59-5.79,4.21-7.78-35.21,2.01-35.21,2.01Z"/><path class="cls-9" d="m47.37,134.11l11.73,133s1.06,19,21.03,30h23.09s-18.12-11-20.12-34l-3.51-130.8-32.22,1.8Z"/><line class="cls-4" x1="19.09" y1="134.11" x2="224.09" y2="134.11"/><path class="cls-8" d="m13.56,126.6s1.01,4.18,5.04,3.13h148.05v-30.59s0-3.86-3.02-4.9v-3.13l60.43,1.53,5.1,4.56v36.91H10.54l-.45-5.7.45-1.81h3.02Z"/><path class="cls-2" d="m20.09,92.11h201c1.76.07,4.07.46,6,2,3.4,2.71,3.1,6.96,3,22-.09,12.87.09,16.92-3,19-1.89,1.27-4.19,1.26-6,.98-3.67,43.67-7.33,87.35-11,131.02-.23,2.09-2.28,18.12-16,26-5.83,3.35-11.55,3.95-15,4H61.72c-2.69,0-11.64-.36-19.63-7-10.79-8.98-11-22.11-11-24-3.67-43.08-7.33-86.17-11-129.25-2.11.14-4.83-.08-7-1.75-3.15-2.43-3.03-6.3-3-21,.02-13.8-.07-17.52,3-20,2.24-1.8,5.04-2.06,7-2Z"/></g><g id="plant"><path class="cls-7" d="m111.84,91.55c-2.16-7.16-4.12-16.08-4.75-26.44-.31-5.05-.26-9.74,0-14-2.7.23-10.2.52-18-4-8.58-4.98-12.02-12.58-13-15-.48-1.19-2.66-6.9,0-13,2.51-5.74,8.33-9.6,15-10,2.67-.22,6.55-.21,11,1,7.07,1.92,11.74,5.82,14,8,1.91-2.22,4.86-5.21,9-8,3.38-2.27,9.57-6.45,18-7,2.93-.19,14.84-.97,21,7,8.24,10.66-1.45,27.1-2,28-1.39,2.29-7.19,11.47-19,14-9.94,2.13-17.83-1.82-20-3-.83,4.85-1.41,10.97-1,18,.6,10.29,3.09,18.65,5.35,24.44h-15.6Z"/><path class="cls-3" d="m75.59,19.61c.54,2.29,6.48,1.63,13,3,18.19,3.82,31.17,21.18,30.33,20.11-1.18-1.5-2.46-3.53-3.33-6.11-2.58-7.7,3.52-13.12,2-18-2.3-7.4-17.46-7.82-22-8-5.46-.21-9.14.73-12,2-3.3,1.47-8.54,4.73-8,7Z"/><path class="cls-3" d="m165.59,13.61c-7.65,2.46-17,6.19-27,12-8.57,4.98-15.54,10.27-21,15-.56-1.61-5.18-15.63,3-27,9.04-12.56,28.53-14.66,39-7,2.98,2.18,4.84,4.87,6,7Z"/><path class="cls-1" d="m119.69,14.39s-14.63,24.89,9.88,37.31"/><path class="cls-1" d="m117.65,40.55c-.81,1.58-2.61,4.56-6.06,7.06-3.44,2.5-6.82,3.29-8.57,3.57"/><path class="cls-2" d="m111.84,91.55c-2.16-7.16-4.12-16.08-4.75-26.44-.31-5.05-.26-9.74,0-14-2.7.23-10.2.52-18-4-8.58-4.98-12.02-12.58-13-15-.48-1.19-2.66-6.9,0-13,2.51-5.74,8.33-9.6,15-10,2.67-.22,6.55-.21,11,1,7.07,1.92,11.74,5.82,14,8,1.91-2.22,4.86-5.21,9-8,3.38-2.27,9.57-6.45,18-7,2.93-.19,14.84-.97,21,7,8.24,10.66-1.45,27.1-2,28-1.39,2.29-7.19,11.47-19,14-9.94,2.13-17.83-1.82-20-3-.83,4.85-1.41,10.97-1,18,.6,10.29,3.09,18.65,5.35,24.44h-15.6Z"/></g><g id="ogen"><g id="neutraal"><circle class="cls-6" cx="85.59" cy="175.61" r="16.5"/><circle class="cls-6" cx="154.59" cy="175.61" r="16.5"/><circle class="cls-11" cx="159.09" cy="175.11" r="6"/><circle class="cls-11" cx="90.09" cy="175.11" r="6"/></g></g><g id="mond"><g id="neutraal-2"><rect class="cls-6" x="87.09" y="231.11" width="65" height="7" rx="3.5" ry="3.5"/></g></g></g></svg>