<?xml version="1.0" encoding="UTF-8"?><svg id="Laag_2" xmlns="http://www.w3.org/2000/svg" xmlns:xlink="http://www.w3.org/1999/xlink" viewBox="0 0 355.25 364.05"><defs><style>.cls-1,.cls-2,.cls-3,.cls-4,.cls-5,.cls-6,.cls-7,.cls-8,.cls-9,.cls-10,.cls-11,.cls-12{stroke-miterlimit:10;}.cls-1,.cls-2,.cls-4,.cls-5,.cls-6,.cls-7,.cls-8,.cls-10,.cls-11,.cls-12{stroke:#000;}.cls-1,.cls-8,.cls-9,.cls-10{fill:none;}.cls-1,.cls-12{stroke-width:6px;}.cls-13{clip-path:url(#clippath);}.cls-2{fill:#edd7e4;}.cls-2,.cls-4,.cls-5,.cls-8,.cls-11{stroke-width:2px;}.cls-3{fill:#b47049;stroke:#e54e4e;}.cls-3,.cls-6,.cls-9,.cls-10{stroke-width:4px;}.cls-4{fill:#bf3533;}.cls-5{fill:#5677c4;}.cls-6{fill:#de976d;}.cls-7{fill:#cbc04a;}.cls-9{stroke:#823a37;}.cls-14,.cls-15,.cls-16,.cls-17,.cls-18{stroke-width:0px;}.cls-12,.cls-17{fill:#c17052;}.cls-15{fill:#ac5346;}.cls-16{fill:#db9364;}.cls-18{fill:#fff;}</style><clipPath id="clippath"><path class="cls-10" d="m115.42,81.8C124.46,34.54,152.97,1.89,178.71,2c31.86.14,54.36,52.67,64.98,77.39,8.58,19.97,12.69,37.87,14.83,50.78.9,3.66,1.52,9.01-1.14,13.61-2.78,4.8-8.36,9.36-25.2,9.36-34.11,0-54.35-.46-54.35-.46l-72.82-17.19s.32-29.51,10.41-53.69Z"/></clipPath></defs><g id="harry"><path id="been_l" class="cls-12" d="m132.65,319.05l8.36,34.18c1.25,5.24,5.73,8.47,10,7.72,3.41-.6,6.26-3.67,7.12-7.72,1.58-11.39,3.16-22.78,4.74-34.18h-30.22Z"/><path id="been_r" class="cls-12" d="m232.88,319.05l-8.36,34.18c-1.25,5.24-5.73,8.47-10,7.72-3.41-.6-6.26-3.67-7.12-7.72-1.58-11.39-3.16-22.78-4.74-34.18h30.22Z"/><path id="arm_l" class="cls-12" d="m74.84,213.05c5.51-8.57,16.66-18.86,23-16,7.58,3.42,4.47,23.9,4,27-2.77,18.27-13.42,29.37-18,34-5.1,5.17-10.35,10.47-14,9-6.82-2.75-2.82-27.02-2-32,1.45-8.77,2.55-15.08,7-22Z"/><path id="arm_r" class="cls-12" d="m293.99,214.17c-5.21-8.76-16-19.43-22.44-16.78-7.69,3.16-5.29,23.73-4.93,26.85,2.14,18.36,12.4,29.81,16.82,34.6,4.92,5.34,9.98,10.82,13.68,9.48,6.91-2.51,3.75-26.9,3.1-31.91-1.14-8.82-2.03-15.16-6.24-22.23Z"/><g id="pot"><path class="cls-17" d="m83.02,114.05h201c1.76.07,4.07.46,6,2,3.4,2.71,3.1,6.96,3,22-.09,12.87.09,16.92-3,19-1.89,1.27-4.19,1.26-6,.98-3.67,43.67-7.33,87.35-11,131.02-.23,2.09-2.28,18.12-16,26-5.83,3.35-11.55,3.95-15,4h-117.37c-2.69,0-11.64-.36-19.63-7-10.79-8.98-11-22.11-11-24-3.67-43.08-7.33-86.17-11-129.25-2.11.14-4.83-.08-7-1.75-3.15-2.43-3.03-6.3-3-21,.02-13.8-.07-17.52,3-20,2.24-1.8,5.04-2.06,7-2Z"/><path class="cls-15" d="m224.08,154.25l-3.06,134.8s-1.4,24-25.7,30h37.56s18.76,0,18.76,0l13.5-10.93,7.37-15.95,10.09-117.14,1.43-22.98-59.94,2.2Z"/><path class="cls-16" d="m108.02,116.05s-4,3-4,10v28.2h35v-32.43s-.59-5.79,4.21-7.78-35.21,2.01-35.21,2.01Z"/><path class="cls-16" d="m110.29,156.05l11.73,133s1.06,19,21.03,30h23.09s-18.12-11-20.12-34l-3.51-130.8-32.22,1.8Z"/><line class="cls-9" x1="82.02" y1="156.05" x2="287.02" y2="156.05"/><path class="cls-15" d="m76.48,148.54s1.01,4.18,5.04,3.13h148.05v-30.59s0-3.86-3.02-4.9v-3.13l60.43,1.53,5.1,4.56v36.91H73.46l-.45-5.7.45-1.81h3.02Z"/><path class="cls-1" d="m83.02,114.05h201c1.76.07,4.07.46,6,2,3.4,2.71,3.1,6.96,3,22-.09,12.87.09,16.92-3,19-1.89,1.27-4.19,1.26-6,.98-3.67,43.67-7.33,87.35-11,131.02-.23,2.09-2.28,18.12-16,26-5.83,3.35-11.55,3.95-15,4h-117.37c-2.69,0-11.64-.36-19.63-7-10.79-8.98-11-22.11-11-24-3.67-43.08-7.33-86.17-11-129.25-2.11.14-4.83-.08-7-1.75-3.15-2.43-3.03-6.3-3-21,.02-13.8-.07-17.52,3-20,2.24-1.8,5.04-2.06,7-2Z"/></g><g id="sombrero"><path class="cls-3" d="m241.26,67.64s93.43-6.39,109.4,22.63c0,0,8.71,22.97-5.8,31.44,0,0-94.3,84.64-340.93-22.97,0,0-14.44-17.87,71.36-16.19,0,0,41.81,7.2,165.97-14.9Z"/><g class="cls-13"><path class="cls-6" d="m115.92,81.8C124.95,34.54,153.47,1.89,179.21,2c31.86.14,54.36,52.67,64.98,77.39,8.58,19.97,12.69,37.87,14.83,50.78.9,3.66,1.52,9.01-1.14,13.61-2.78,4.8-8.36,9.36-25.2,9.36-34.11,0-54.35-.46-54.35-.46l-72.82-17.19s.32-29.51,10.41-53.69Z"/><path class="cls-4" d="m108.07,109s39.7,30.84,142.48,5.45,0,43.53,0,43.53l-148.73-7.25,6.25-41.72Z"/><path class="cls-2" d="m104.21,84.22l-1.55,29.77s62.36,53.1,152.72,2.94l-1.94-28.35s-64.17,41.43-149.23-4.36Z"/><path class="cls-5" d="m115.6,77.57s44.26,18.8,130.11,4.26c85.85-14.54,3.02,16.9,3.02,16.9l-99.77,4.4-42.17-12.56s-8.33-8.77,0-11.18,8.81-1.81,8.81-1.81Z"/><path class="cls-4" d="m110.14,80.59l-1.19,15.72s70.26,33.86,139.78,2.42c69.53-31.44-3.02-8.16-3.02-8.16,0,0-86.15,23.88-135.57-9.98Z"/></g><path class="cls-10" d="m115.42,81.8C124.46,34.54,152.97,1.89,178.71,2c31.86.14,54.36,52.67,64.98,77.39,8.58,19.97,12.69,37.87,14.83,50.78.9,3.66,1.52,9.01-1.14,13.61-2.78,4.8-8.36,9.36-25.2,9.36-34.11,0-54.35-.46-54.35-.46l-72.82-17.19s.32-29.51,10.41-53.69Z"/><path class="cls-6" d="m2.02,96.05s220.26,108.84,347,23.77c0,0-22.45,62.61-172.42,55.7-34.63.89-61.61-5.02-78.98-10.18-8.88-2.64-94.18-27.97-95.6-67.29-.03-.85-.02-1.55,0-2Z"/><g id="Laag_17"><polygon class="cls-7" points="239.67 72.13 245.71 81.83 257.8 70.92 239.67 72.13"/><polygon class="cls-7" points="261.1 70.92 267.48 84.22 281.61 70.92 261.1 70.92"/><polygon class="cls-7" points="284.62 70.92 291.66 87.85 303.75 73.34 284.62 70.92"/><polygon class="cls-7" points="309.8 74.55 311.01 89.06 326.72 80.59 309.8 74.55"/><polygon class="cls-7" points="330.35 80.59 329.14 96.31 342.17 88.45 330.35 80.59"/><polygon class="cls-7" points="14.76 92.69 24.44 99.94 23.23 89.06 14.76 92.69"/><polygon class="cls-7" points="29.75 89.06 37.74 101.15 42.46 89.06 29.75 89.06"/><polygon class="cls-7" points="48.62 86.64 57.08 97.52 64.2 86.64 48.62 86.64"/><polygon class="cls-7" points="71.43 86.64 81.89 94.5 88.52 86.64 71.43 86.64"/><polygon class="cls-7" points="96.99 85.43 106.79 90.57 114.02 85.43 96.99 85.43"/></g></g><g id="ogen"><g id="neutraal"><circle class="cls-14" cx="148.52" cy="197.55" r="16.5"/><circle class="cls-14" cx="217.52" cy="197.55" r="16.5"/><circle class="cls-18" cx="222.02" cy="197.05" r="6"/><circle class="cls-18" cx="153.02" cy="197.05" r="6"/></g></g><g id="mond"><g id="fluit"><circle class="cls-8" cx="205.52" cy="250.55" r="11.5"/><circle class="cls-11" cx="205.52" cy="250.55" r="6.5"/></g></g></g></svg>